<?xml version="1.0" encoding="UTF-8"?>
<svg version="1.1" xmlns="http://www.w3.org/2000/svg" width="645" height="609">
<path d="M0 0 C212.85 0 425.7 0 645 0 C645 200.97 645 401.94 645 609 C432.15 609 219.3 609 0 609 C0 408.03 0 207.06 0 0 Z " fill="#FEFEFE" transform="translate(0,0)"/>
<path d="M0 0 C1.57114623 -0.00926969 3.14228802 -0.01932078 4.71342468 -0.03009033 C8.96348529 -0.05620727 13.21348291 -0.06920147 17.46361113 -0.07811165 C20.12312497 -0.08399211 22.78262194 -0.09220504 25.44212723 -0.10112 C33.77579231 -0.12843035 42.10941842 -0.14778507 50.44312513 -0.15552378 C60.04061847 -0.16448719 69.63754243 -0.1996088 79.23486269 -0.25752497 C86.67037463 -0.30082835 94.10572672 -0.32093589 101.54136336 -0.32360601 C105.97508875 -0.32569641 110.40827747 -0.33738884 114.84186935 -0.37324524 C119.01347325 -0.40633101 123.18414046 -0.41045965 127.35582924 -0.39296722 C128.88036557 -0.39143322 130.40495361 -0.40002316 131.92936134 -0.41988373 C141.08765574 -0.53213796 148.23444519 0.1936316 155.47119141 6.32226562 C162.31653457 13.60495052 163.65959908 21.13438786 164.50634766 30.79882812 C164.63172157 32.13124039 164.63172157 32.13124039 164.7596283 33.49057007 C165.02389698 36.30893013 165.27930147 39.12799821 165.53369141 41.94726562 C165.79305364 44.77351923 166.05433199 47.59957285 166.31846619 50.42538452 C166.48184813 52.17804894 166.64227413 53.93099215 166.79933167 55.68423462 C167.16311503 59.63048843 167.64266473 63.44190586 168.47119141 67.32226562 C168.63946608 68.8079235 168.78215876 70.29667279 168.90087891 71.78710938 C169.00770996 73.08370483 169.00770996 73.08370483 169.11669922 74.40649414 C169.19243164 75.34807373 169.26816406 76.28965332 169.34619141 77.25976562 C170.08160618 85.97387981 170.86109424 94.68202908 171.72119141 103.38476562 C171.89751099 105.17382324 171.89751099 105.17382324 172.07739258 106.99902344 C172.97262435 115.86890732 173.97148976 124.72452232 174.99853516 133.58007812 C175.27378382 135.975809 175.54884703 138.37156118 175.82373047 140.76733398 C176.23520365 144.35339441 176.65022454 147.93882572 177.07800293 151.52297974 C178.41217499 162.70176336 179.71580855 173.82955171 179.78759766 185.09960938 C179.79583054 185.85553879 179.80406342 186.6114682 179.81254578 187.39030457 C179.74525473 193.68149793 178.10587613 198.26117846 174.47119141 203.32226562 C173.89369141 204.25039063 173.31619141 205.17851562 172.72119141 206.13476562 C163.44886315 215.14952921 152.00580263 215.63193159 139.76806641 215.62304688 C138.45388733 215.627332 137.13970825 215.63161713 135.78570557 215.6360321 C133.01204375 215.64346013 130.23850928 215.64322903 127.46484375 215.63793945 C123.94385958 215.63216353 120.42340467 215.64904645 116.90250778 215.67228413 C113.50350739 215.69073311 110.1046163 215.68683249 106.70556641 215.68554688 C104.83466339 215.6993615 104.83466339 215.6993615 102.92596436 215.7134552 C90.55014278 215.6489228 80.7045213 213.3908435 70.47119141 206.32226562 C69.58431641 205.74476563 68.69744141 205.16726563 67.78369141 204.57226562 C58.9006208 195.92927801 53.44909797 184.3995689 53.12744141 172.01757812 C53.1864384 163.87810033 55.35474817 156.83197285 57.97119141 149.19726562 C63.36045864 133.46202939 63.36045864 133.46202939 60.72119141 117.44726562 C59.9968702 116.05856703 59.24885237 114.68181276 58.47119141 113.32226562 C57.93494141 112.29101562 57.39869141 111.25976562 56.84619141 110.19726562 C50.87419369 102.96800523 43.37508344 98.96620333 34.06884766 97.95117188 C23.96760781 97.76142483 15.88363147 99.88830125 6.47119141 103.32226562 C-1.75094717 106.06297848 -11.71838586 104.90467994 -19.52880859 101.32226562 C-28.83240656 95.97235119 -35.75142192 89.35479144 -39.61083984 79.21289062 C-43.06633597 64.56746874 -40.46844966 48.60534446 -38.77880859 33.82226562 C-38.70066925 33.10857819 -38.62252991 32.39489075 -38.54202271 31.65957642 C-37.4157878 21.62241469 -36.25180642 12.97382846 -28.27880859 5.94726562 C-27.57240234 5.30015625 -26.86599609 4.65304688 -26.13818359 3.98632812 C-18.37728006 -0.96299059 -8.85409373 0.01220678 0 0 Z " fill="#313131" transform="translate(277.52880859375,170.677734375)"/>
<path d="M0 0 C3.11019814 2.49912646 5.48675286 5.40919418 7.05078125 9.05859375 C7.48600475 14.80211701 6.29705286 19.07891203 4.36328125 24.37109375 C2.19893141 30.55276276 0.2408566 36.73070177 -1.44921875 43.05859375 C-3.288811 49.90039039 -5.4217575 56.59318216 -7.71435547 63.29541016 C-9.52040308 68.62982121 -11.09969964 73.99877399 -12.57421875 79.43359375 C-18.91577776 102.67597038 -18.91577776 102.67597038 -24.80078125 106.15234375 C-29.62418149 108.18694167 -34.43601125 107.66969678 -39.19921875 105.74609375 C-43.73469968 101.31369193 -45.4559962 95.76079133 -47.79980469 89.94970703 C-53.33989956 76.36914642 -59.59633907 64.23403607 -73.6628418 57.8215332 C-77.83085165 56.12084991 -82.02479317 54.4963529 -86.23242188 52.89648438 C-92.43125797 50.43785794 -96.72946209 48.2888149 -100.94921875 43.05859375 C-102.20565626 39.28928123 -102.67731431 35.95812912 -101.94921875 32.05859375 C-98.83922713 26.34155917 -94.39355289 23.98059925 -88.37980652 22.05348206 C-86.90789604 21.62095375 -86.90789604 21.62095375 -85.40625 21.1796875 C-83.8402581 20.68921181 -83.8402581 20.68921181 -82.24263 20.18882751 C-78.81805377 19.12267977 -75.38429167 18.09036889 -71.94921875 17.05859375 C-69.56242429 16.32360636 -67.17619965 15.58676617 -64.79052734 14.84814453 C-57.41545075 12.57390623 -50.0270963 10.34500753 -42.63671875 8.12109375 C-38.83400898 6.97374421 -35.03190053 5.82440427 -31.22969055 4.67539978 C-28.89059163 3.96891917 -26.5512369 3.2632848 -24.21159363 2.55860901 C-22.64638725 2.08692543 -22.64638725 2.08692543 -21.04956055 1.60571289 C-20.13377731 1.33005997 -19.21799408 1.05440704 -18.27445984 0.770401 C-12.44291684 -1.0147621 -5.82212662 -2.81188881 0 0 Z " fill="#323232" transform="translate(315.94921875,286.94140625)"/>
<path d="M0 0 C7.88817415 7.40666981 12.97309798 16.93919176 15.3125 27.4375 C15.48233398 28.03755859 15.65216797 28.63761719 15.82714844 29.25585938 C16.78424354 33.55797297 16.58227185 37.98539426 16.625 42.375 C16.66850586 43.8590332 16.66850586 43.8590332 16.71289062 45.37304688 C16.75180961 49.82477945 16.75124473 52.65319526 14.546875 56.59375 C12.18411307 58.54344166 11.26479862 59.09875063 8.25 59 C4.3125 58.4375 4.3125 58.4375 2.59399414 56.70996094 C1.11995419 54.09606041 0.9183412 52.49985311 0.87109375 49.515625 C0.83145508 48.10023438 0.83145508 48.10023438 0.79101562 46.65625 C0.77748047 45.6765625 0.76394531 44.696875 0.75 43.6875 C0.53343263 31.68806364 -1.02077352 21.90168181 -9.3203125 12.609375 C-11.02856632 11.03619241 -12.75730388 9.72698384 -14.6875 8.4375 C-15.27402344 8.025 -15.86054688 7.6125 -16.46484375 7.1875 C-24.1017587 2.83219009 -34.19868145 3.34340261 -42.6875 4.4375 C-46.52429496 5.56542527 -49.46569675 7.09437037 -52.6875 9.4375 C-53.76 10.159375 -54.8325 10.88125 -55.9375 11.625 C-65.94221157 21.85709138 -67.03545143 32.939939 -66.99023438 46.56835938 C-67.14181365 53.7023644 -67.14181365 53.7023644 -70.0390625 57.60546875 C-72.6875 59.4375 -72.6875 59.4375 -75.75 59.5625 C-79.57517957 58.09753761 -80.58783092 56.97985925 -82.6875 53.4375 C-83.2852228 49.76278097 -83.25522072 46.15318984 -83.1875 42.4375 C-83.17759033 41.40890869 -83.16768066 40.38031738 -83.1574707 39.32055664 C-82.7845363 24.00610808 -77.39649771 11.67204067 -66.875 0.515625 C-47.59311652 -17.64148194 -19.90304983 -16.15418771 0 0 Z " fill="#353535" transform="translate(373.6875,99.5625)"/>
<path d="M0 0 C0.73412109 -0.02449219 1.46824219 -0.04898437 2.22460938 -0.07421875 C7.84387637 -0.10413499 11.05459889 1.18915113 15.6875 4.375 C21.03748919 10.15877209 22.04999265 14.47049917 22.0625 22.125 C22.08699219 22.8984375 22.11148438 23.671875 22.13671875 24.46875 C22.16572246 30.23082121 20.90084304 34.56136957 17.6875 39.375 C15.1875 41.75 15.1875 41.75 12.6875 43.375 C11.87539063 43.90673828 11.87539063 43.90673828 11.046875 44.44921875 C4.74533058 46.92184462 -4.53840827 46.44324148 -11.03125 44.60546875 C-15.64222413 42.09603475 -18.36770693 38.19869315 -20.46484375 33.45703125 C-22.50305875 26.04619421 -22.87369958 16.73485892 -19.625 9.625 C-17.38834722 6.4815961 -15.5329838 4.46831447 -12.3125 2.375 C-11.50232422 1.84132813 -11.50232422 1.84132813 -10.67578125 1.296875 C-7.1717386 -0.06999122 -3.70744777 0.00640873 0 0 Z " fill="#363636" transform="translate(251.3125,442.625)"/>
<path d="M0 0 C21 0 21 0 30 3 C33 6 33 6 33.36328125 8.12109375 C33.34652344 8.88550781 33.32976562 9.64992188 33.3125 10.4375 C33.30863281 11.19933594 33.30476563 11.96117187 33.30078125 12.74609375 C32.9684622 15.23632868 32.33940064 16.88045723 31 19 C28.875 19.75 28.875 19.75 27 20 C27 20.66 27 21.32 27 22 C27.78375 22.268125 28.5675 22.53625 29.375 22.8125 C32 24 32 24 34 27 C34.74895238 31.57209304 34.3842086 35.17010943 32.4375 39.375 C28.87428243 43.21231123 25.42708866 44.78858946 20.27563477 45.23730469 C17.19755541 45.29459933 14.14044877 45.26143358 11.0625 45.1875 C7.411875 45.125625 3.76125 45.06375 0 45 C0 30.15 0 15.3 0 0 Z " fill="#343434" transform="translate(378,443)"/>
<path d="M0 0 C0.85494049 -0.02567047 1.70988098 -0.05134094 2.59072876 -0.07778931 C3.51775604 -0.09256317 4.44478333 -0.10733704 5.39990234 -0.12255859 C6.35472504 -0.13870209 7.30954773 -0.15484558 8.29330444 -0.17147827 C10.31916021 -0.1991754 12.34510961 -0.22061288 14.37109375 -0.23632812 C17.45414525 -0.27064332 20.53284022 -0.35835594 23.61474609 -0.44677734 C38.07377277 -0.67085904 38.07377277 -0.67085904 43.04345703 2.17919922 C45.01208765 4.1460946 46.50939948 5.92990484 47.86083984 8.35400391 C42.3343365 15.09480816 36.16634426 21.1611168 29.98583984 27.29150391 C28.90487711 28.36744117 27.82414601 29.44361121 26.74365234 30.52001953 C24.11871344 33.13403682 21.49065356 35.74488986 18.86083984 38.35400391 C14.57016438 36.7016374 11.71788455 33.4634832 8.56396484 30.25244141 C7.97033142 29.65597809 7.376698 29.05951477 6.76507568 28.44497681 C4.87557358 26.54430581 2.99315593 24.63678916 1.11083984 22.72900391 C-0.1712508 21.43687922 -1.45379777 20.14520715 -2.73681641 18.85400391 C-5.87624448 15.69255912 -9.00933816 12.52495781 -12.13916016 9.35400391 C-11.181861 8.22812376 -10.22328121 7.10333241 -9.26416016 5.97900391 C-8.73048828 5.35251953 -8.19681641 4.72603516 -7.64697266 4.08056641 C-5.00720798 1.05783069 -4.0068696 0.10475441 0 0 Z " fill="#313131" transform="translate(285.13916015625,170.64599609375)"/>
<path d="M0 0 C3.96 0 7.92 0 12 0 C12 5.61 12 11.22 12 17 C16.95 17 21.9 17 27 17 C27 11.39 27 5.78 27 0 C30.96 0 34.92 0 39 0 C39 14.85 39 29.7 39 45 C35.04 45 31.08 45 27 45 C27 39.06 27 33.12 27 27 C22.05 27 17.1 27 12 27 C12 32.94 12 38.88 12 45 C8.04 45 4.08 45 0 45 C0 30.15 0 15.3 0 0 Z " fill="#363636" transform="translate(171,443)"/>
<path d="M0 0 C24.80912863 0 24.80912863 0 30.97265625 5.8828125 C33.11738918 10.3027564 32.58104835 15.23029542 32 20 C30.0171377 24.03654111 27.83420139 26.6500056 24 29 C21.11788698 29.96070434 19.30149956 30.10581883 16.3125 30.0625 C14.889375 30.041875 13.46625 30.02125 12 30 C12 34.95 12 39.9 12 45 C8.04 45 4.08 45 0 45 C0 30.15 0 15.3 0 0 Z " fill="#353535" transform="translate(294,443)"/>
<path d="M0 0 C1.9375 1.1875 1.9375 1.1875 3 3 C3.1875 6.1875 3.1875 6.1875 3 9 C1.68 9.33 0.36 9.66 -1 10 C-2.04449911 6.86650268 -1.93423645 6.01031744 -1 3 C-4.42841668 3.85710417 -6.65674596 4.69385451 -9.3125 7.0625 C-11.52425242 10.91258754 -12.23816398 14.56221112 -12 19 C-11.08401711 21.22493902 -11.08401711 21.22493902 -10 23 C-6.6365731 22.97350778 -6.6365731 22.97350778 -3 22 C-0.64119086 19.29527096 -0.64119086 19.29527096 1 16 C3.88888889 11.11111111 3.88888889 11.11111111 6 9 C8.3828125 8.8046875 8.3828125 8.8046875 11.125 8.875 C12.03507812 8.89304688 12.94515625 8.91109375 13.8828125 8.9296875 C14.58148438 8.95289063 15.28015625 8.97609375 16 9 C17.1700097 12.91736581 16.69584017 15.97959015 16 20 C16.47985967 18.72942818 16.9588593 17.45853152 17.4375 16.1875 C17.70433594 15.47980469 17.97117187 14.77210938 18.24609375 14.04296875 C18.86225186 12.37327604 19.43719235 10.68842296 20 9 C20.886875 9.185625 21.77375 9.37125 22.6875 9.5625 C25.91821398 10.17285221 25.91821398 10.17285221 28.75 9.4375 C29.4925 9.293125 30.235 9.14875 31 9 C33 11 33 11 33.1953125 13.1640625 C33.17210937 13.97617188 33.14890625 14.78828125 33.125 15.625 C33.10695313 16.44226563 33.08890625 17.25953125 33.0703125 18.1015625 C33.04710937 18.72804687 33.02390625 19.35453125 33 20 C33.17015625 19.28972656 33.3403125 18.57945312 33.515625 17.84765625 C33.75796875 16.92855469 34.0003125 16.00945312 34.25 15.0625 C34.48203125 14.14597656 34.7140625 13.22945312 34.953125 12.28515625 C36 10 36 10 38.046875 9.12109375 C38.69140625 9.08113281 39.3359375 9.04117188 40 9 C41 10 41 10 41.09765625 12.28515625 C41.08605469 13.20167969 41.07445312 14.11820313 41.0625 15.0625 C41.05347656 15.98160156 41.04445313 16.90070313 41.03515625 17.84765625 C41.02355469 18.55792969 41.01195312 19.26820313 41 20 C42.32 18.68 43.64 17.36 45 16 C44.34 15.01 43.68 14.02 43 13 C42.75 10.4375 42.75 10.4375 43 8 C43.66 7.34 44.32 6.68 45 6 C48.53571429 6.53571429 48.53571429 6.53571429 50 8 C50.04063832 9.66617115 50.042721 11.33388095 50 13 C50.9590625 12.01 50.9590625 12.01 51.9375 11 C55.97278721 8.36471039 59.2897723 8.4063556 64 9 C65 10 65 10 65.09765625 12.28515625 C65.08605469 13.20167969 65.07445312 14.11820313 65.0625 15.0625 C65.05347656 15.98160156 65.04445313 16.90070313 65.03515625 17.84765625 C65.02355469 18.55792969 65.01195312 19.26820313 65 20 C65.66 19.34 66.32 18.68 67 18 C67.495 20.475 67.495 20.475 68 23 C66.375 24.5625 66.375 24.5625 64 26 C61 25.625 61 25.625 58 25 C56.948125 25.3403125 56.948125 25.3403125 55.875 25.6875 C55.25625 25.790625 54.6375 25.89375 54 26 C51.23733334 23.94773334 50.1594602 22.58468741 49.25 19.25 C49.1675 18.5075 49.085 17.765 49 17 C47.02 19.64 45.04 22.28 43 25 C38.25 24.25 38.25 24.25 36 22 C34.68 23.32 33.36 24.64 32 26 C28.125 24.125 28.125 24.125 27 23 C26.85884839 20.32941149 26.95752893 17.67567762 27 15 C26.61521484 16.06541016 26.61521484 16.06541016 26.22265625 17.15234375 C23.15590991 24.51460011 23.15590991 24.51460011 19.8046875 25.921875 C15.92788925 26.35689527 12.75174451 25.99796404 9 25 C7.783125 24.835 6.56625 24.67 5.3125 24.5 C2 24 2 24 1 23 C0.484375 23.639375 -0.03125 24.27875 -0.5625 24.9375 C-3.78998959 27.66845273 -5.79294691 28 -10 28 C-13.74669241 26.02061533 -15.64677369 24.52983947 -18 21 C-18.70517642 15.77677463 -18.64840521 11.32082543 -16.3125 6.5625 C-10.98709227 0.66137251 -7.92164527 -1.66771479 0 0 Z " fill="#202020" transform="translate(309,228)"/>
<path d="M0 0 C11.22 0 22.44 0 34 0 C34 8.99984289 34 8.99984289 31.33203125 12.69140625 C30.76806641 13.49126953 30.20410156 14.29113281 29.62304688 15.11523438 C28.72682617 16.32663086 28.72682617 16.32663086 27.8125 17.5625 C27.23435547 18.37396484 26.65621094 19.18542969 26.06054688 20.02148438 C24.96899118 21.54966234 23.87007751 23.07263535 22.76098633 24.58813477 C20.48313449 27.70790439 18.24523305 30.85667373 16 34 C22.27 34.33 28.54 34.66 35 35 C35 38.3 35 41.6 35 45 C23.45 45 11.9 45 0 45 C0 36.56131271 0.2027031 34.43445898 5.0625 28.5625 C6.07119401 27.27152161 7.07900459 25.97985248 8.0859375 24.6875 C8.5819043 24.06488281 9.07787109 23.44226563 9.58886719 22.80078125 C11.55622839 20.29018328 13.37581196 17.68683824 15.1875 15.0625 C16.115625 13.721875 17.04375 12.38125 18 11 C12.06 10.67 6.12 10.34 0 10 C0 6.7 0 3.4 0 0 Z " fill="#353535" transform="translate(514,443)"/>
<path d="M0 0 C11.22 0 22.44 0 34 0 C34 8.99761374 34 8.99761374 31.3671875 12.40234375 C30.80773437 13.14806641 30.24828125 13.89378906 29.671875 14.66210938 C28.78242188 15.78842773 28.78242188 15.78842773 27.875 16.9375 C26.72491543 18.44535974 25.57647382 19.95447404 24.4296875 21.46484375 C23.8634668 22.20202637 23.29724609 22.93920898 22.71386719 23.69873047 C19.98399151 27.3642302 17.49960699 31.17461362 15 35 C21.27 35 27.54 35 34 35 C34 38.3 34 41.6 34 45 C22.45 45 10.9 45 -1 45 C-1 36.00238626 -1 36.00238626 1.6328125 32.59765625 C2.19226563 31.85193359 2.75171875 31.10621094 3.328125 30.33789062 C3.92109375 29.58701172 4.5140625 28.83613281 5.125 28.0625 C6.27508457 26.55464026 7.42352618 25.04552596 8.5703125 23.53515625 C9.1365332 22.79797363 9.70275391 22.06079102 10.28613281 21.30126953 C13.01600849 17.6357698 15.50039301 13.82538638 18 10 C12.06 10 6.12 10 0 10 C0 6.7 0 3.4 0 0 Z " fill="#353535" transform="translate(464,443)"/>
<path d="M0 0 C-0.99 3.3 -1.98 6.6 -3 10 C-4.155 9.67 -5.31 9.34 -6.5 9 C-10.77500587 7.91598066 -14.60361453 7.84298623 -19 8 C-18.74641023 9.94485409 -18.74641023 9.94485409 -18 12 C-14.90987066 13.8548151 -11.80331142 15.38488966 -8.546875 16.91210938 C-4.36198278 18.97605914 -1.89556183 20.51125322 0 25 C0.7205356 31.38188672 -0.15594835 34.84087804 -4 40 C-8.92750972 43.17189997 -12.96331233 43.43536649 -18.625 43.3125 C-19.75035156 43.31733398 -19.75035156 43.31733398 -20.8984375 43.32226562 C-25.03944982 43.28188341 -27.21392685 42.89303657 -31 41 C-31 37.7 -31 34.4 -31 31 C-29.659375 31.33 -28.31875 31.66 -26.9375 32 C-19.85734193 33.60417336 -19.85734193 33.60417336 -13 32 C-13.01683389 30.09100961 -13.01683389 30.09100961 -14 28 C-17.16552715 26.06624701 -20.44841433 24.56077173 -23.80078125 22.9765625 C-28.00048647 20.38187283 -30.39388286 17.50807093 -31.56640625 12.65625 C-31.55799451 8.01296848 -31.11888198 4.72216009 -27.68359375 1.21875 C-18.90818735 -5.13374837 -9.55866957 -3.1425763 0 0 Z " fill="#363636" transform="translate(152,445)"/>
<path d="M0 0 C7.90628673 0.21991989 13.03483626 2.72690758 18.53588867 8.43554688 C22.42276313 13.19441703 24.00654503 17.78205748 25.08666992 23.81445312 C24.44077679 28.00666516 21.69655741 30.01185083 18.67260742 32.81445312 C18.10026367 33.36423828 17.52791992 33.91402344 16.93823242 34.48046875 C15.52736793 35.83254722 14.1014023 37.16883648 12.67260742 38.50195312 C8.38193196 36.84958662 5.52965213 33.61143242 2.37573242 30.40039062 C1.782099 29.80392731 1.18846558 29.20746399 0.57684326 28.59292603 C-1.31265885 26.69225503 -3.19507649 24.78473838 -5.07739258 22.87695312 C-6.35948323 21.58482844 -7.64203019 20.29315636 -8.92504883 19.00195312 C-12.0644769 15.84050834 -15.19757058 12.67290703 -18.32739258 9.50195312 C-17.37009342 8.37607298 -16.41151363 7.25128163 -15.45239258 6.12695312 C-14.9187207 5.50046875 -14.38504883 4.87398437 -13.83520508 4.22851562 C-9.72800504 -0.47454764 -5.91017539 0.00495976 0 0 Z " fill="#333333" transform="translate(416.327392578125,170.498046875)"/>
<path d="M0 0 C3.96 0 7.92 0 12 0 C12 14.85 12 29.7 12 45 C8.04 45 4.08 45 0 45 C0 30.15 0 15.3 0 0 Z " fill="#363636" transform="translate(432,443)"/>
<path d="M0 0 C2.86942113 2.26533247 3.83907612 3.51722837 5 7 C5.98391321 17.27463468 5.98391321 17.27463468 3.0625 21.625 C0.14458525 24.98502304 0.14458525 24.98502304 -1.9609375 25.203125 C-2.75757813 25.21859375 -3.55421875 25.2340625 -4.375 25.25 C-5.16648438 25.27578125 -5.95796875 25.3015625 -6.7734375 25.328125 C-9.52714035 24.92231616 -10.33271658 24.18894879 -12 22 C-13.14544249 18.56367253 -13.2397802 15.74568045 -13.3125 12.125 C-13.34988281 10.91070312 -13.38726562 9.69640625 -13.42578125 8.4453125 C-12.92772309 4.41515381 -11.83027718 2.84603011 -9 0 C-5.81452856 -1.59273572 -3.39809153 -0.76164121 0 0 Z " fill="#F8F8F8" transform="translate(256,453)"/>
<path d="M0 0 C0.66 0.33 1.32 0.66 2 1 C2.41064453 3.40844727 2.41064453 3.40844727 2.6328125 6.56640625 C2.71660156 7.69111328 2.80039062 8.81582031 2.88671875 9.97460938 C2.96535156 11.15861328 3.04398437 12.34261719 3.125 13.5625 C3.21136719 14.75037109 3.29773438 15.93824219 3.38671875 17.16210938 C3.59964392 20.10757419 3.80366457 23.05339035 4 26 C0.04625813 22.66883385 -3.81041857 19.31571444 -7.4375 15.625 C-8.11683594 14.93664062 -8.79617188 14.24828125 -9.49609375 13.5390625 C-9.99238281 13.03117188 -10.48867188 12.52328125 -11 12 C-7.49102731 7.81576108 -3.91939465 3.80411834 0 0 Z " fill="#393939" transform="translate(440,199)"/>
<path d="M0 0 C5.61 0 11.22 0 17 0 C17 3.3 17 6.6 17 10 C11.39 10 5.78 10 0 10 C0 6.7 0 3.4 0 0 Z " fill="#3B3B3B" transform="translate(342,466)"/>
<path d="M0 0 C6.625 -0.25 6.625 -0.25 10 2 C10.4375 4.4375 10.4375 4.4375 10 7 C7.62130509 9.65315971 6.32875347 9.98103345 2.75 10.1875 C1.8425 10.125625 0.935 10.06375 0 10 C0 6.7 0 3.4 0 0 Z " fill="#F3F3F3" transform="translate(390,469)"/>
<path d="M0 0 C2.875 -0.125 2.875 -0.125 6 0 C8 2 8 2 8.3125 5 C8.1578125 6.485 8.1578125 6.485 8 8 C5 10 5 10 0 10 C0 6.7 0 3.4 0 0 Z " fill="#F8F8F8" transform="translate(306,453)"/>
<path d="M0 0 C5.625 -0.25 5.625 -0.25 9 2 C8.125 6.875 8.125 6.875 7 8 C4.66702567 8.04092937 2.33294775 8.04241723 0 8 C0 5.36 0 2.72 0 0 Z " fill="#F6F6F6" transform="translate(390,452)"/>
<path d="M0 0 C-2.64 2.64 -5.28 5.28 -8 8 C-9.32 7.34 -10.64 6.68 -12 6 C-13.66140763 5.32033324 -15.32700041 4.65061095 -17 4 C-14.23719462 2.15812975 -12.19292174 1.27751723 -9.0625 0.3125 C-7.78052734 -0.09548828 -7.78052734 -0.09548828 -6.47265625 -0.51171875 C-4 -1 -4 -1 0 0 Z " fill="#3F3F3F" transform="translate(281,295)"/>
<path d="M0 0 C1.71140469 1.96185416 3.37873325 3.96302383 5 6 C5.66 6.33 6.32 6.66 7 7 C7 7.99 7 8.98 7 10 C-0.5 7 -0.5 7 -8 4 C-3.375 0 -3.375 0 0 0 Z " fill="#3E3E3E" transform="translate(243,338)"/>
<path d="M0 0 C4.62 0 9.24 0 14 0 C12.02 2.31 10.04 4.62 8 7 C4 5 4 5 0 0 Z " fill="#313131" transform="translate(390,171)"/>
<path d="M0 0 C4.62 0 9.24 0 14 0 C12.02 2.31 10.04 4.62 8 7 C4 5 4 5 0 0 Z " fill="#313131" transform="translate(327,171)"/>
<path d="M0 0 C0.99 0 1.98 0 3 0 C4.27462325 1.43803649 5.54283424 2.88470014 6.7265625 4.3984375 C8.33658514 6.4233126 10.13838858 8.20733715 12 10 C10.84826645 12.46800047 9.95216435 14.04783565 8 16 C5.33333333 10.66666667 2.66666667 5.33333333 0 0 Z " fill="#393939" transform="translate(258,356)"/>
<path d="M0 0 C1.32 0.66 2.64 1.32 4 2 C2.75023244 5.65316671 2.32901247 6.78065836 -1 9 C-4.1875 8.625 -4.1875 8.625 -7 8 C-6.02133662 6.85373678 -5.04205413 5.70800212 -4.0625 4.5625 C-3.51722656 3.92441406 -2.97195313 3.28632813 -2.41015625 2.62890625 C-1.63204305 1.73008851 -0.84063472 0.84063472 0 0 Z " fill="#3E3E3E" transform="translate(302,150)"/>
<path d="M0 0 C1.1055189 0.93590504 2.20935453 1.87379858 3.3125 2.8125 C3.92738281 3.33457031 4.54226563 3.85664063 5.17578125 4.39453125 C7 6 7 6 8.59375 7.71875 C9.0578125 8.1415625 9.521875 8.564375 10 9 C12.16299211 8.77242269 12.16299211 8.77242269 14 8 C14 10.31 14 12.62 14 15 C13.12601562 14.66162109 13.12601562 14.66162109 12.234375 14.31640625 C9.94272384 13.74590669 9.94272384 13.74590669 8.078125 15.21484375 C7.47484375 15.78332031 6.8715625 16.35179687 6.25 16.9375 C5.63640625 17.50339844 5.0228125 18.06929687 4.390625 18.65234375 C3.93171875 19.09707031 3.4728125 19.54179687 3 20 C4.06364023 17.73337803 4.7984996 16.17911146 6.6875 14.5 C7.120625 14.005 7.55375 13.51 8 13 C7.62109991 9.37771517 6.05906491 7.77942519 3.4375 5.375 C2.25665005 4.28681232 1.10189664 3.16806798 0 2 C0 1.34 0 0.68 0 0 Z " fill="#262626" transform="translate(292,137)"/>
<path d="M0 0 C0.66 0 1.32 0 2 0 C2.25 5.625 2.25 5.625 0 9 C-0.66 9 -1.32 9 -2 9 C-2.25 3.375 -2.25 3.375 0 0 Z " fill="#2E2E2E" transform="translate(317,241)"/>
<path d="M0 0 C0.33 0 0.66 0 1 0 C0.125 6.75 0.125 6.75 -1 9 C-1.66 9 -2.32 9 -3 9 C-2.25 2.25 -2.25 2.25 0 0 Z " fill="#303030" transform="translate(367,241)"/>
<path d="M0 0 C5.75 1.625 5.75 1.625 8 5 C7.01 5.33 6.02 5.66 5 6 C3.35 4.02 1.7 2.04 0 0 Z " fill="#464646" transform="translate(252,350)"/>
<path d="M0 0 C0 3 0 3 -2.5 5.6875 C-3.325 6.450625 -4.15 7.21375 -5 8 C-5.66 7.67 -6.32 7.34 -7 7 C-5.54744301 3.17053157 -3.57104439 1.87949705 0 0 Z " fill="#242424" transform="translate(244,331)"/>
</svg>
